<svg width="291" height="346" viewBox="0 0 291 346" fill="none" xmlns="http://www.w3.org/2000/svg">
<g id="1468294873 1">
<g id="layer2">
<g id="g4348">
<path id="path4206" fill-rule="evenodd" clip-rule="evenodd" d="M170.8 208.09C169.904 216.953 169.258 229.6 175.401 234.274C180.005 237.775 186.068 231.699 191.081 229.206C194.762 227.374 197.694 223.509 201.477 222.027C207.195 219.785 213.454 218.495 219.372 219.704C222.457 220.334 224.794 224.047 227.893 224.56C229.948 224.901 231.961 223.102 234.028 223.293C236.411 223.514 238.635 224.916 240.845 226.038C243.314 227.292 245.455 229.496 248.003 230.473C250.797 231.544 253.817 231.311 256.695 231.951C259.273 232.524 261.747 234.172 264.364 234.062C266.376 233.978 268.244 232.722 270.159 231.951C272.568 230.98 274.792 229.043 277.317 228.783C281.17 228.387 288.735 231.317 288.735 231.317C288.735 231.317 281.403 232.51 277.828 233.64C273.407 235.038 268.927 237.488 264.364 237.441C258.551 237.38 254.83 231.911 246.981 234.274C245.048 234.855 241.807 232.223 241.016 234.485C239.447 238.968 245.864 245.807 249.196 248.421C252.645 251.125 256.563 250.292 260.615 249.688C263.217 249.299 264.929 245.795 267.432 244.831C270.807 243.533 272.03 243.906 275.442 245.042C277.177 245.62 282.43 247.576 282.43 247.576C282.43 247.576 279.248 247.518 277.658 247.576C274.757 247.682 271.727 247.103 268.966 248.21C265.442 249.621 260.524 253.619 256.866 254.333C252.401 255.205 250.692 252.167 246.64 249.688C244.571 248.422 242.466 248.321 241.016 246.098C239.626 243.968 239.582 240.761 238.119 238.708C235.428 234.932 231.578 232.6 227.893 230.473C225.417 229.044 222.768 227.895 220.053 227.517C217.676 227.185 215.092 226.975 212.895 228.15C211.124 229.098 208.836 230.629 208.635 233.007C208.358 236.27 211.254 238.855 213.236 241.031C216.09 244.163 219.873 245.694 223.291 247.787C224.91 248.779 226.468 250.065 228.234 250.532C231.178 251.313 234.343 249.641 237.266 250.532C239.882 251.33 242.241 253.223 244.424 255.178C246.411 256.956 248.348 258.986 249.708 261.512C250.656 263.274 250.441 265.849 251.582 267.425C255.266 272.509 266.239 276.927 266.239 276.927C266.239 276.927 254.138 275.527 249.708 271.014C248.079 269.355 248.126 266.088 246.81 264.046C245.653 262.251 244.339 259.679 242.72 258.556C240.996 257.361 238.668 255.581 236.755 254.967C234.069 254.104 231.414 256.328 228.745 255.389C223.123 253.411 216.407 242.324 212.384 247.576C210.371 250.204 212.918 255.17 214.6 258.134C215.778 260.211 218.699 261.354 220.394 262.779C224.37 266.122 229.62 266.687 233.517 270.17C236.092 272.472 240.334 274.915 239.993 278.827C239.558 283.818 242.014 286.721 245.617 288.751C248.124 290.163 248.685 298.253 248.685 298.253C248.685 298.253 243.667 291.658 241.186 288.329C238.267 284.412 238.347 279.029 234.88 275.871C231.195 272.513 222.948 264.936 220.053 269.325C217.997 272.443 224.005 275.722 225.848 279.038C227.76 282.48 230.102 285.691 231.302 289.596C232.202 292.527 232.224 295.769 232.495 298.887C231.478 306.194 232.566 310.273 229.938 316.201C229.938 316.201 230.034 308.305 229.768 304.377C229.417 299.199 229.549 293.736 227.893 288.962C226.47 284.862 223.791 281.564 221.246 278.405C219.36 276.062 216.457 275.005 214.94 272.281C213.42 269.551 213.925 265.629 212.554 262.779C210.889 259.316 208.469 256.313 205.737 254.122C204.214 252.9 202.431 252.022 200.625 251.799C196.163 251.248 191.813 254.457 187.331 254.333C184.725 254.261 181.216 249.839 179.662 252.433C177.435 256.149 182.548 261.13 184.945 264.68C188.475 269.907 194.823 271.698 197.898 277.349C201.073 283.185 200.05 291.374 202.67 297.62C203.508 299.619 204.515 301.747 206.078 302.899C208.856 304.945 212.789 303.085 215.622 305.01C219.887 307.909 225.507 318.313 225.507 318.313C222.06 314.223 219.138 308.619 214.429 308.177L216.133 324.859C216.473 324.982 214.669 316.476 211.532 309.022C209.825 304.965 204.494 305.414 201.988 302.054C200.229 299.696 199.809 296.223 198.58 293.397C197.045 289.868 195.664 286.174 193.637 283.05C192.907 281.925 192.215 279.762 191.081 280.094C188.071 280.973 189.839 287.938 187.843 290.863C186.741 292.476 184.367 292.28 183.412 294.03C182.736 295.267 182.588 297.022 182.9 298.464C183.686 302.096 185.184 305.75 186.82 308.916C188.299 311.78 191.976 314.178 191.848 317.574C191.651 322.787 189.712 327.424 187.331 331.615C183.963 337.547 181.026 341.751 181.026 341.751C181.026 341.751 186.981 329.275 187.161 322.325C187.251 318.854 186.934 315.352 185.457 312.4C184.123 309.735 180.363 308.608 179.151 305.855C177.902 303.019 177.243 299.549 177.617 296.353C178.124 292.022 183.557 290.112 184.519 285.901C184.985 283.865 183.428 280.417 182.9 278.405C181.941 274.745 179.343 271.968 176.935 269.536C175.537 268.124 173.967 266.423 172.163 266.369C169.648 266.293 167.368 268.526 165.346 270.381C163.246 272.308 161.182 274.633 160.063 277.56C159.055 280.196 158.906 283.306 159.04 286.217C159.34 292.697 158.451 304.534 163.386 307.755C172.286 313.563 175.401 340.695 175.401 340.695C175.401 340.695 168.653 314.109 161.384 316.412C154.713 318.526 162.832 343.862 162.832 343.862C162.832 343.862 158.645 330.922 157.081 322.114C156.303 317.735 158.766 307.131 157.166 303.11C155.972 300.111 155.701 295.225 153.075 294.452C149.519 293.406 146.374 298.539 143.872 301.843C142.045 304.256 140.443 307.248 139.953 310.5C139.363 314.414 140.929 318.372 141.316 322.325C142.073 330.049 143.191 345.552 143.191 345.552C143.191 345.552 141.241 339.655 142.253 330.032C142.428 328.367 137.648 315.26 138.078 313.667C139.125 309.786 137.758 305.32 138.76 301.421C139.587 298.2 141.731 295.742 143.02 292.763C143.909 290.71 144.284 288.299 145.406 286.429C146.679 284.308 149.072 283.408 150.178 281.15C151.851 277.735 152.706 273.527 152.564 269.536C152.36 263.799 152.512 254.375 147.963 253.277C142.985 252.076 141.458 262.937 137.907 267.425C134.671 271.516 131.288 275.452 127.682 279.038C126.059 280.652 123.77 281.368 122.569 283.472C121.344 285.62 120.794 288.446 120.865 291.074C120.939 293.833 122.315 296.294 123.08 298.887C124.124 302.422 127.525 305.989 126.318 309.444C123.082 318.716 117.219 340.324 117.968 340.695C117.968 340.695 121.321 326.601 121.206 319.369C121.135 314.964 123.278 310.756 122.399 306.488C121.465 301.954 116.819 297.463 115.752 292.974C115.315 291.138 115.792 288.285 114.389 287.484C111.015 285.559 107.32 290.549 104.163 292.974C102.141 294.527 100.062 296.252 98.7093 298.676C97.0636 301.623 96.7664 305.428 95.8121 308.811C94.6622 312.887 94.6451 317.751 92.4035 321.058C90.0648 324.507 82.8596 327.604 82.8596 327.604C82.8596 327.604 90.4758 319.963 92.5739 314.934C94.7203 309.79 92.6971 302.429 95.3008 297.62C97.4852 293.585 102.601 292.788 104.504 288.54C105.225 286.929 106.102 284.307 105.015 283.05C101.595 279.092 95.0877 282.97 91.2105 286.217C88.9255 288.131 86.719 291.053 84.5639 293.185C81.124 296.589 75.9972 295.313 74.3383 300.365C71.4052 309.297 56.9547 309.655 56.9547 309.655C56.9547 309.655 69.9489 306.781 68.0324 299.731C65.5402 290.564 48.7742 299.942 48.7742 299.942C48.7704 299.931 63.3368 286.112 76.0425 293.819C79.0176 295.624 81.7254 289.6 84.5639 287.484C88.1454 284.815 91.1446 280.008 95.3008 279.461C101.235 278.68 107.844 280.564 112.855 274.604C115.765 271.142 121.542 276.849 124.955 274.182C127.168 272.452 127.73 268.61 128.534 265.524C129.346 262.408 131.647 258.063 129.727 255.811C125.892 251.313 119.352 258.29 114.218 259.823C108.779 261.447 103.55 264.2 98.0276 265.313C92.9734 266.332 87.754 265.435 82.6892 266.369C79.8546 266.892 76.9394 267.412 74.3383 268.903C71.3473 270.617 69.3353 274.412 66.3282 276.082C61.0203 279.03 55.0482 279.747 49.2855 280.727C42.5811 279.963 37.311 279.696 30.0273 279.249C30.0273 279.249 43.1259 279.159 49.4559 277.349C53.0844 276.311 58.415 276.714 61.7267 274.604C64.9777 272.533 69.0827 269.42 69.055 264.891C69.0211 259.325 64.8486 255.028 60.8745 252.433C57.0932 249.964 50.0848 250.618 45.8769 249.688C41.9557 248.821 37.6624 248.753 33.9471 250.533C32.5154 251.218 31.4734 252.803 30.3681 254.122C26.9468 258.206 20.9946 267.425 20.9946 267.425C20.9946 267.425 32.1072 254.863 28.6638 249.688C26.5837 246.561 19.2904 253.277 19.2904 253.277C19.2904 253.277 25.1848 247.559 28.6638 246.098C32.449 244.509 35.7452 247.757 39.7416 247.787C44.8293 247.826 50.8059 245.305 55.7617 246.732C62.6405 248.712 68.8169 253.653 75.7016 255.6C80.4907 256.955 86.0136 260.53 90.8697 259.612C97.5358 258.352 104.374 256.149 109.787 251.166C110.92 250.123 112.149 245.205 111.662 243.564C108.557 233.119 94.0519 238.535 85.0752 238.074C79.5507 237.791 74.0724 239.853 68.5437 239.764C62.7726 239.67 57.1022 237.46 51.3306 237.441C46.3619 237.424 41.2807 237.745 36.6739 235.752C32.836 234.091 29.2957 234.085 24.9145 239.975C22.4646 243.268 12.1325 253.277 12.1325 253.277C12.1325 253.277 20.9914 239.265 25.2553 235.752C28.2776 233.262 32.3826 229.785 35.6514 231.74C41.8246 235.431 47.425 235.452 52.694 233.007C56.2104 231.375 60.0181 235.664 63.7718 235.541C66.6919 235.445 72.1222 236.62 72.2931 233.007C72.7358 223.648 57.6776 227.679 50.9898 223.294C45.3731 219.611 39.6937 215.615 33.4358 218.648C29.997 220.315 25.9506 219.706 22.3581 218.648C14.155 216.233 5.85137 234.005 5.99707 234.274C5.99707 234.274 11.7988 220.009 15.7114 216.748C17.0719 215.614 18.8642 215.59 20.4834 215.27C24.4204 214.492 28.5184 213.16 32.4132 214.214C37.5264 215.598 42.5092 217.684 47.2404 217.17C53.5833 216.481 59.7777 226.914 68.5437 225.827C71.5524 225.455 73.8379 229.568 76.7242 230.684C83.2591 233.211 90.1785 234.059 97.005 234.696C104.03 235.351 111.16 235.684 118.138 234.485C121.755 233.863 125.722 233.507 128.704 230.895C131.304 228.619 132.808 224.754 134.158 221.182C135.158 218.538 136.345 215.63 136.033 212.736C135.604 208.764 132.94 205.677 131.09 202.389C128.62 197.997 125.805 193.905 122.91 189.931C120.272 186.31 117.98 181.997 114.559 179.585C109.158 175.777 102.559 175.56 96.4938 173.884C86.7831 171.2 77.0704 168.26 67.1803 166.915C63.2823 166.386 59.3411 166.375 55.4208 166.493C51.0346 166.626 46.6423 168.521 42.298 167.76C38.9338 167.171 35.8163 165.15 32.7541 163.326C24.0522 158.143 7.87177 144.955 7.87177 144.955C7.87177 144.955 29.5621 162.364 41.9571 165.015C48.0343 166.315 54.197 162.824 60.3632 162.692C67.1378 162.548 73.9097 163.457 80.644 164.382C89.5001 165.598 98.7208 165.561 107.06 169.449C115.187 173.239 122.726 194.143 129.045 186.764C134.153 180.799 123.367 170.583 118.82 163.959C113.474 156.172 106.801 149.453 99.391 144.955C93.4521 141.35 86.6917 140.094 80.1328 139.043C72.2444 137.779 64.1856 139.626 56.273 138.621C50.288 137.861 44.5586 134.743 38.5486 134.398C33.8732 134.129 29.2312 136.659 24.5736 136.087C19.9061 135.513 11.1099 131.019 11.1099 131.019C11.1099 131.019 19.358 133.241 23.5511 133.342C28.18 133.454 32.7326 131.132 37.3556 131.442C42.0625 131.757 46.4768 134.581 51.1602 135.242C57.9337 136.199 64.7996 135.115 71.6114 135.454C79.5219 135.847 87.5855 135.366 95.3008 137.565C99.7728 138.84 104.176 140.918 108.083 143.9C113.634 148.137 118.164 154.192 122.74 159.947C124.577 162.259 125.852 165.244 127.852 167.338C128.358 167.867 128.971 168.99 129.557 168.605C132.32 166.787 130.92 160.722 130.068 156.991C128.411 149.74 124.049 143.643 119.672 138.41C114.523 132.255 107.927 128.204 101.607 124.051C97.02 121.037 91.8799 120.328 86.9292 118.391C82.4457 116.637 78.185 113.063 73.4861 112.86C65.1759 112.501 48.7742 117.083 48.7742 117.083C48.7742 117.083 57.6019 112.292 62.2379 110.749C65.2955 109.73 68.4471 108.72 71.6114 108.848C80.4122 109.206 93.0037 125.73 97.3459 116.239C99.5252 111.475 89.7576 108.392 89.5889 102.921C88.5788 95.0132 75.2556 92.1215 68.5937 91.4248C63.9316 90.0949 59.181 88.5102 54.3983 88.3663C51.8988 88.2911 49.376 88.1513 46.8995 88.5774C41.9591 89.4275 32.4132 93.2229 32.4132 93.2229C32.4132 93.2229 38.1974 89.34 41.2754 87.944C44.2514 86.5943 47.4476 86.5966 50.599 86.1823C54.6135 85.6545 58.5757 87.8105 62.5788 88.4581C67.0207 89.1763 76.4834 94.6759 75.7016 89.2109C74.8919 83.5505 41.4941 64.9009 41.6163 64.5059C41.6163 64.5059 67.9506 76.6282 75.5313 85.6213C78.8325 89.5377 83.7698 90.8492 87.1203 94.7009C90.5434 98.6363 92.4474 104.228 95.4712 108.637C97.1621 111.103 98.8134 113.701 100.925 115.605C104.253 118.606 108.309 120.112 112.003 122.362C115.24 124.335 118.753 125.727 121.717 128.274C125.118 131.197 127.625 135.468 130.75 138.832C134.044 142.38 137.059 151.356 140.975 148.967C143.677 147.32 141.938 141.233 140.805 137.776C138.96 132.148 134.318 128.64 130.75 124.474C127.256 120.395 123.132 117.194 119.672 113.071C114.221 106.576 109.366 99.3437 104.504 92.1671C100.653 86.4838 97.6389 79.9153 93.426 74.6413C89.332 69.5161 84.8597 64.6733 79.7919 61.1274C74.3612 57.3276 62.2379 53.1036 62.2379 53.1036C62.2379 53.1036 76.5169 55.1868 82.8596 59.0159C87.98 62.1071 92.1024 67.3569 96.1529 72.3186C100.084 77.134 101.763 91.1884 106.719 88.1552C111.476 85.244 104.554 75.276 103.14 68.9402C102.107 64.306 101.167 59.5924 99.5614 55.2151C98.0542 51.1049 96.1678 47.1715 93.9373 43.6017C90.9618 38.8396 83.7117 30.7213 83.7117 30.7213C83.7117 30.7213 92.8014 39.1359 96.6642 44.2351C98.888 47.1708 100.919 50.403 102.459 53.9482C104.494 58.6344 105.634 63.8508 106.89 68.9402C108.412 75.111 108.733 81.7278 110.639 87.7328C112.138 92.4534 114.139 96.9858 116.604 101.036C119.362 105.565 122.859 109.354 126.318 113.071C127.82 114.685 129.527 119.028 131.09 117.506C135.172 113.531 125.876 106.099 124.955 99.7686C124.117 94.0127 125.979 88.0762 125.637 82.2429C125.444 78.9524 123.887 75.818 124.103 72.5298C124.275 69.9105 126.282 67.7669 126.318 65.1394C126.355 62.4689 125.329 59.8662 124.273 57.5378C120.956 50.2235 114.531 45.593 111.15 38.3228C109.043 33.7895 106.89 23.542 106.89 23.542C106.89 23.542 111.463 36.1417 115.07 41.279C117.144 44.2316 120.486 45.5158 122.569 48.4582C125.473 52.5603 128.024 57.3525 129.216 62.6055C130.692 69.1118 128.016 76.3929 129.557 82.8763C129.801 83.907 130.053 85.6296 130.92 85.6213C135.479 85.5775 135.399 75.7694 137.907 71.0517C140.883 65.4554 144.988 60.759 147.451 54.7928C149.112 50.7702 150.339 46.3844 150.86 41.9124C151.672 34.9431 150.349 20.7971 150.349 20.7971C150.349 20.7971 152.955 31.6768 152.905 37.2671C152.863 41.9467 151.958 46.6649 150.519 50.9921C147.95 58.7188 142.722 64.6922 139.612 72.1074C136.781 78.8576 134.574 86.0097 132.624 93.2229C131.915 95.8453 130.866 98.4818 130.92 101.247C131.002 105.453 132.52 109.489 133.988 113.282C135.316 116.715 137.271 119.726 139.1 122.784C140.326 124.833 141.224 127.451 143.02 128.697C144.472 129.703 146.393 130.223 147.963 129.541C150.921 128.257 152.379 124.022 154.439 121.095C155.873 119.057 157.914 117.355 158.529 114.761C159.768 109.532 157.562 103.928 157.166 98.5017C156.699 92.1039 155.17 85.6332 155.973 79.2867C156.903 71.9263 159.767 65.0339 162.79 58.5936C163.298 57.5103 164.063 56.6448 164.664 55.6375C166.971 51.7767 169.31 47.9267 171.311 43.8128C172.334 41.7099 173.255 39.523 174.038 37.2671C175.606 32.7474 177.958 23.3309 177.958 23.3309C177.958 23.3309 176.059 38.1568 173.527 44.8686C171.717 49.6644 168.169 53.1677 166.028 57.749C164.716 60.5568 163.599 63.5317 162.79 66.6175C161.66 70.9235 160.64 75.3932 160.574 79.9202C160.507 84.5595 161.435 89.1783 162.449 93.6451C163.111 96.5642 162.747 101.719 165.176 102.091C170.465 102.901 171.818 91.7135 174.549 86.0436C176.424 82.1511 177.631 77.8173 179.321 73.7967C181.577 68.4305 183.444 62.7 186.479 57.9602C188.678 54.5255 191.928 52.3239 194.319 49.0917C196.783 45.7602 198.713 41.8775 200.965 38.3228C204.208 33.2039 210.85 23.1198 210.85 23.1198C210.85 23.1198 203.319 40.0069 198.579 47.6136C195.756 52.1458 191.894 55.5727 189.035 60.0717C187.613 62.3115 186.305 64.6951 185.286 67.2509C183.79 71.0037 182.856 75.0698 181.878 79.0755C181.674 79.9088 180.826 81.0522 181.366 81.6094C185.058 85.4198 189.967 76.2329 194.489 74.219C197.978 72.6653 201.662 71.8914 205.226 70.6293C208.25 69.5586 211.502 69.1267 214.259 67.2509C220.437 63.0468 230.279 50.1474 230.279 50.1474C230.279 50.1474 221.366 62.9584 215.793 67.6732C212.034 70.8525 207.561 72.497 203.351 74.6413C199.428 76.64 195.305 78.0157 191.421 80.1313C188.91 81.4998 186.421 82.976 184.093 84.7767C181.443 86.8271 178.721 88.9092 176.594 91.7448C174.159 94.9911 172.589 99.0983 170.8 102.936C168.016 108.906 165.023 114.823 163.131 121.306C161.963 125.305 159.131 130.132 160.915 133.764C161.374 134.698 162.59 134.642 163.471 134.609C166.524 134.493 169.321 132.402 172.163 131.019C174.08 130.087 176.106 129.325 177.787 127.852C181.331 124.749 184.124 120.452 186.82 116.239C189.551 111.97 190.288 105.475 193.978 102.514C197.113 99.9967 201.373 101.183 205.056 100.402C208.987 99.5687 213.025 99.1984 216.815 97.6571C219.929 96.3905 223.094 94.8778 225.677 92.3782C228.761 89.394 230.735 84.9768 233.176 81.1871C237.194 74.9478 244.935 62.1832 244.935 62.1832C244.935 62.1832 235.686 84.7215 228.404 93.2229C226.255 95.7315 220.307 95.0935 220.735 98.7128C221.234 102.936 227.386 101.013 230.79 101.669C234.506 102.385 238.281 102.899 242.038 102.725C243.933 102.637 245.794 102.067 247.662 101.669C253.592 100.407 259.791 100.183 265.387 97.4459C267.073 96.6214 269.988 93.8563 269.988 93.8563C269.988 93.8563 257.189 103.427 250.048 105.681C245.859 107.004 241.418 106.66 237.096 106.526C231.558 106.353 226.066 105.22 220.564 104.414C217.15 103.914 213.765 102.368 210.339 102.725C207.85 102.984 205.409 104.07 203.181 105.47C201.225 106.698 199.59 108.599 197.898 110.326C193.801 114.508 189.73 118.787 186.138 123.629C183.616 127.029 181.84 131.206 179.321 134.609C177.446 137.142 175.217 139.236 173.186 141.577C172.156 142.764 169.757 143.483 170.118 145.167C170.554 147.196 173.387 146.314 175.06 146.645C178.606 147.345 182.207 147.695 185.797 147.701C190.242 147.708 194.722 147.442 199.091 146.434C203.172 145.492 207.3 144.281 211.021 141.999C214.229 140.032 217.026 137.118 219.712 134.187C223.573 129.974 230.279 120.251 230.279 120.251C230.279 120.251 222.418 135.503 216.985 141.366C215.105 143.396 209.671 143.1 210.509 146.011C212.54 153.063 222.714 144.94 228.404 142.422C234.589 139.685 241.818 135.749 247.492 131.653C249.824 129.969 249.756 125.516 252.434 125.107C263.098 123.48 278.51 117.294 278.51 117.294C278.51 117.294 260.837 123.07 253.286 127.852C250.199 129.808 248.831 132.627 245.958 135.031C243.542 137.053 240.621 137.614 238.118 139.466C235.063 141.726 232.63 145.873 229.256 147.278C222.014 150.295 214.144 150.088 206.589 151.501C202.84 152.203 199.078 152.81 195.341 153.613C190.379 154.679 185.051 154.496 180.514 157.202C179.171 158.004 177.802 159.159 177.106 160.792C175.851 163.733 176.091 167.396 176.253 170.716C176.391 173.528 175.945 177.301 177.787 178.951C184.306 184.791 193.782 176.664 201.818 176.206C207.776 175.867 213.749 176.374 219.712 176.206C223.465 176.101 227.332 176.763 230.961 175.573C236.634 173.712 242.412 170.693 246.64 165.649C249.406 162.348 249.581 156.595 252.264 153.191C256.321 148.043 261.827 144.744 267.261 142.211C271.86 140.067 281.748 138.832 281.748 138.832C281.748 138.832 268.92 142.5 263.512 146.856C259.637 149.976 257.248 155.28 253.968 159.314C250.545 163.524 247.305 168.051 243.402 171.561C239.78 174.817 235.934 178.015 231.642 179.585C225.47 181.842 218.791 180.529 212.384 181.274C206.063 182.009 199.584 181.913 193.467 184.019C189.621 185.343 185.983 187.6 182.559 190.143C179.918 192.104 177.191 194.168 175.231 197.111C173.129 200.267 171.21 204.03 170.8 208.09L170.8 208.09Z" fill="black" stroke="black" stroke-width="0.290612"/>
<g id="paper">
<path id="path4208" fill-rule="evenodd" clip-rule="evenodd" d="M29.0056 164.592C29.0056 164.592 20.0364 165.82 17.3161 169.668C15.2348 172.613 15.388 181.165 15.388 181.165C15.388 181.165 22.876 180.289 25.3903 177.283C27.996 174.168 29.0056 164.592 29.0056 164.592V164.592Z" stroke="black" stroke-width="0.290612"/>
<path id="path4210" fill-rule="evenodd" clip-rule="evenodd" d="M1.40869 145.331C1.40869 145.331 9.54795 142.758 13.3392 144.285C17.4331 145.935 23.221 154.588 23.221 154.588C23.221 154.588 14.201 159.422 9.96494 157.574C5.85532 155.78 1.40869 145.331 1.40869 145.331Z" stroke="black" stroke-width="0.290612"/>
<path id="path4212" fill-rule="evenodd" clip-rule="evenodd" d="M26.4749 140.702C26.4749 140.702 25.411 147.39 26.3544 150.407C27.6891 154.675 33.9466 160.411 33.9466 160.411C33.9466 160.411 35.0252 151.841 33.585 148.168C32.2276 144.705 26.4749 140.702 26.4749 140.702Z" stroke="black" stroke-width="0.290612"/>
<path id="path4214" fill-rule="evenodd" clip-rule="evenodd" d="M40.936 149.362C40.936 149.362 45.6524 146.896 47.4435 144.733C48.9926 142.863 50.8178 137.865 50.8178 137.865C50.8178 137.865 45.5253 138.208 43.7077 140.254C41.7695 142.436 40.936 149.362 40.936 149.362V149.362Z" stroke="black" stroke-width="0.290612"/>
<path id="path4216" fill-rule="evenodd" clip-rule="evenodd" d="M55.6384 147.272C55.6384 147.272 52.4196 153.432 52.9872 156.678C53.5166 159.706 58.1691 163.397 58.1691 163.397C58.1691 163.397 60.7528 157.817 60.3383 154.886C59.8931 151.739 55.6384 147.272 55.6384 147.272Z" stroke="black" stroke-width="0.290612"/>
<path id="path4218" fill-rule="evenodd" clip-rule="evenodd" d="M86.007 148.018C86.007 148.018 84.7196 153.519 85.4044 156.081C86.4059 159.828 91.7915 164.89 91.7915 164.89C91.7915 164.89 94.03 157.097 92.7555 153.692C91.612 150.636 86.007 148.018 86.007 148.018V148.018Z" stroke="black" stroke-width="0.290612"/>
<path id="path4224" fill-rule="evenodd" clip-rule="evenodd" d="M67.0103 152.029C67.0103 152.029 68.1171 145.776 69.8223 143.583C72.0972 140.656 78.7697 138.515 78.7697 138.515C78.7697 138.515 77.8892 145.374 76.0429 147.7C73.7792 150.552 67.0103 152.029 67.0103 152.029V152.029Z" stroke="black" stroke-width="0.290612"/>
<path id="path4226" fill-rule="evenodd" clip-rule="evenodd" d="M89.1655 121.834C89.1655 121.834 89.2731 128.967 90.6141 131.969C91.9677 134.999 96.8347 138.937 96.8347 138.937C96.8347 138.937 97.3338 132.192 96.153 129.33C94.751 125.931 89.1655 121.834 89.1655 121.834V121.834Z" stroke="black" stroke-width="0.290612"/>
<path id="path4228" fill-rule="evenodd" clip-rule="evenodd" d="M4.80432 121.939C4.80432 121.939 5.66427 131.14 8.38329 133.553C10.879 135.767 17.5864 133.975 17.5864 133.975C17.5864 133.975 15.7028 126.477 13.3257 124.262C11.0012 122.096 4.80432 121.939 4.80432 121.939V121.939Z" stroke="black" stroke-width="0.290612"/>
<path id="path4230" fill-rule="evenodd" clip-rule="evenodd" d="M25.2554 113.071C25.2554 113.071 27.0617 121.674 29.3456 124.896C31.48 127.907 37.6965 131.019 37.6965 131.019C37.6965 131.019 37.6152 122.014 35.481 118.772C33.1185 115.184 25.2554 113.071 25.2554 113.071V113.071Z" stroke="black" stroke-width="0.290612"/>
<path id="path4232" fill-rule="evenodd" clip-rule="evenodd" d="M61.2155 132.075C61.2155 132.075 61.215 126.178 60.1929 123.629C58.7454 120.018 53.3759 114.971 53.3759 114.971C53.3759 114.971 53.7998 124.433 55.9323 128.063C57.1478 130.132 61.2155 132.075 61.2155 132.075Z" stroke="black" stroke-width="0.290612"/>
<path id="path4234" fill-rule="evenodd" clip-rule="evenodd" d="M42.5025 113.976C42.5025 113.976 46.2687 110.707 48.4075 110.84C50.9754 111.001 55.156 115.469 55.156 115.469C55.156 115.469 51.3812 120.721 48.8895 120.545C46.1269 120.351 42.5025 113.976 42.5025 113.976Z" stroke="black" stroke-width="0.290612"/>
<path id="path4236" fill-rule="evenodd" clip-rule="evenodd" d="M70.8226 124.726C70.8226 124.726 70.1774 119.24 71.3046 117.111C72.5269 114.803 77.2096 113.229 77.2096 113.229C77.2096 113.229 77.3849 118.607 76.2456 120.695C75.0648 122.859 70.8226 124.726 70.8226 124.726V124.726Z" stroke="black" stroke-width="0.290612"/>
<path id="path4238" fill-rule="evenodd" clip-rule="evenodd" d="M55.3972 95.7602C55.3972 95.7602 56.6117 102.088 58.2895 104.42C60.2158 107.098 65.8816 109.646 65.8816 109.646C65.8816 109.646 65.2046 102.075 63.2304 99.4929C61.3066 96.9764 55.3972 95.7602 55.3972 95.7602Z" stroke="black" stroke-width="0.290612"/>
<path id="path4240" fill-rule="evenodd" clip-rule="evenodd" d="M40.936 104.271C40.936 104.271 45.6158 100.76 47.4435 98.2985C49.4587 95.5847 52.1434 88.892 52.1434 88.892C52.1434 88.892 44.1452 89.9796 41.9001 93.5206C40.1024 96.3559 40.936 104.271 40.936 104.271Z" stroke="black" stroke-width="0.290612"/>
<path id="path4242" fill-rule="evenodd" clip-rule="evenodd" d="M15.9907 93.8191C15.9907 93.8191 21.6886 89.3652 24.9084 89.1906C27.9417 89.026 33.5851 92.6247 33.5851 92.6247C33.5851 92.6247 28.785 98.7218 25.6315 99.0449C22.1357 99.4031 15.9907 93.8191 15.9907 93.8191Z" stroke="black" stroke-width="0.290612"/>
<path id="path4244" fill-rule="evenodd" clip-rule="evenodd" d="M101.432 100.389C101.432 100.389 100.245 106.073 100.589 108.9C101.028 112.512 104.204 118.903 104.204 118.903C104.204 118.903 108.808 110.729 107.819 106.511C107.068 103.308 101.432 100.389 101.432 100.389Z" stroke="black" stroke-width="0.290612"/>
<path id="path4246" fill-rule="evenodd" clip-rule="evenodd" d="M32.1387 70.3776C32.1387 70.3776 37.8557 73.2928 39.8513 76.0513C41.7952 78.7381 43.4666 85.9056 43.4666 85.9056C43.4666 85.9056 36.5842 83.3332 34.4284 80.0826C32.7014 77.4785 32.1387 70.3776 32.1387 70.3776Z" stroke="black" stroke-width="0.290612"/>
<path id="path4248" fill-rule="evenodd" clip-rule="evenodd" d="M38.6465 56.6415C38.6465 56.6415 44.9459 59.676 47.2027 62.6138C48.9986 64.9516 50.6975 71.2738 50.6975 71.2738C50.6975 71.2738 43.5242 71.6484 41.1772 68.8848C38.7125 65.9827 38.6465 56.6415 38.6465 56.6415V56.6415Z" stroke="black" stroke-width="0.290612"/>
<path id="path4250" fill-rule="evenodd" clip-rule="evenodd" d="M78.053 73.5131C78.053 73.5131 80.7836 78.7386 81.0656 81.7251C81.3083 84.2941 79.8606 89.3398 79.8606 89.3398C79.8606 89.3398 77.0835 83.6031 76.8478 80.3813C76.6772 78.048 78.053 73.5131 78.053 73.5131V73.5131Z" stroke="black" stroke-width="0.290612"/>
<path id="path4252" fill-rule="evenodd" clip-rule="evenodd" d="M85.4044 84.4129C85.4044 84.4129 90.4109 83.3326 92.876 83.8156C95.9926 84.4263 101.673 88.1456 101.673 88.1456C101.673 88.1456 96.263 93.1863 93.2375 92.6248C89.8549 91.9971 85.4044 84.4129 85.4044 84.4129V84.4129ZM58.0486 64.4056C58.0486 64.4056 65.1597 62.5439 68.7741 62.3152C73.2336 62.0332 82.1506 63.2111 82.1506 63.2111C82.1506 63.2111 74.3619 71.4833 69.6176 71.5723C65.3066 71.6532 58.0486 64.4056 58.0486 64.4056Z" stroke="black" stroke-width="0.290612"/>
<path id="path4254" fill-rule="evenodd" clip-rule="evenodd" d="M49.9744 43.3528C49.9744 43.3528 57.0081 42.0592 59.9768 43.9501C63.0288 45.894 66.3638 53.9537 66.3638 53.9537C66.3638 53.9537 58.5963 55.9967 55.3973 53.8045C52.4721 51.7999 49.9744 43.3528 49.9744 43.3528Z" stroke="black" stroke-width="0.290612"/>
<path id="path4256" fill-rule="evenodd" clip-rule="evenodd" d="M70.0993 35.5889C70.0993 35.5889 73.1433 41.1742 73.5941 44.3981C74.0772 47.8532 72.63 54.8497 72.63 54.8497C72.63 54.8497 69.0518 48.5302 68.6532 44.846C68.3162 41.7309 70.0993 35.5889 70.0993 35.5889V35.5889Z" stroke="black" stroke-width="0.290612"/>
<path id="path4258" fill-rule="evenodd" clip-rule="evenodd" d="M77.5712 46.9364C77.5712 46.9364 81.9137 42.4926 84.5607 41.7107C87.6955 40.7847 94.2016 42.6066 94.2016 42.6066C94.2016 42.6066 89.4989 47.511 86.6094 48.2803C83.6428 49.0701 77.5712 46.9364 77.5712 46.9364V46.9364Z" stroke="black" stroke-width="0.290612"/>
<path id="path4260" fill-rule="evenodd" clip-rule="evenodd" d="M90.5863 52.1624C90.5863 52.1624 93.9895 56.0144 94.8041 58.5826C95.9232 62.1106 95.4067 69.9301 95.4067 69.9301C95.4067 69.9301 91.6678 64.4548 90.8273 61.1209C90.1083 58.269 90.5863 52.1624 90.5863 52.1624Z" stroke="black" stroke-width="0.290612"/>
<path id="path4262" fill-rule="evenodd" clip-rule="evenodd" d="M117.339 74.2599C117.339 74.2599 121.135 83.4557 121.196 88.4442C121.26 93.7494 117.46 103.674 117.46 103.674C117.46 103.674 111.909 92.8293 112.157 86.8018C112.35 82.1113 117.339 74.2599 117.339 74.2599Z" stroke="black" stroke-width="0.290612"/>
<path id="path4264" fill-rule="evenodd" clip-rule="evenodd" d="M92.1529 30.0645C92.9078 26.0684 98.4194 20.5087 98.4194 20.5087C98.4194 20.5087 100.288 28.3283 99.6245 32.1548C98.9312 36.1522 94.4426 42.6064 94.4426 42.6064C94.4426 42.6064 91.3644 34.2379 92.1529 30.0645Z" stroke="black" stroke-width="0.290612"/>
<path id="path4266" fill-rule="evenodd" clip-rule="evenodd" d="M76.3659 19.165C76.3659 19.165 84.3732 21.3691 86.8503 24.9881C88.892 27.9711 89.2605 36.3355 89.2605 36.3355C89.2605 36.3355 81.425 37.244 78.8966 34.2452C75.9032 30.6948 76.3659 19.165 76.3659 19.165V19.165Z" stroke="black" stroke-width="0.290612"/>
<path id="path4268" fill-rule="evenodd" clip-rule="evenodd" d="M108.422 51.4155C108.422 51.4155 115.248 51.4992 118.183 53.3565C121.623 55.5337 126.378 63.5094 126.378 63.5094C126.378 63.5094 119.586 65.7649 116.616 64.1067C112.63 61.8811 108.422 51.4155 108.422 51.4155Z" stroke="black" stroke-width="0.290612"/>
<path id="path4270" fill-rule="evenodd" clip-rule="evenodd" d="M108.783 27.3768C108.783 27.3768 112.064 18.7848 110.952 14.6856C109.683 10.0031 101.914 4.98059 101.914 4.98059C101.914 4.98059 100.276 13.5897 101.432 17.5225C102.667 21.7253 108.783 27.3768 108.783 27.3768Z" stroke="black" stroke-width="0.290612"/>
<path id="path4272" fill-rule="evenodd" clip-rule="evenodd" d="M123.485 16.328C123.485 16.328 126.033 25.7549 125.173 30.363C124.15 35.8369 117.46 44.2487 117.46 44.2487C117.46 44.2487 115.698 32.9712 116.978 27.6754C118.052 23.2303 123.485 16.328 123.485 16.328V16.328ZM130.114 46.7869C130.114 46.7869 135.634 47.8638 137.585 50.0717C140.492 53.3603 142.526 63.3602 142.526 63.3602C142.526 63.3602 136.15 61.0017 133.97 58.1344C131.698 55.1473 130.114 46.7869 130.114 46.7869V46.7869Z" stroke="black" stroke-width="0.290612"/>
<path id="path4274" fill-rule="evenodd" clip-rule="evenodd" d="M130 31.8391C130 31.8391 138.278 29.9511 141.875 31.8391C146.117 34.0659 151 43.9803 151 43.9803C151 43.9803 140.71 44.3823 136.5 41.5521C133.426 39.4855 130 31.8391 130 31.8391V31.8391Z" stroke="black" stroke-width="0.290612"/>
<path id="path4276" fill-rule="evenodd" clip-rule="evenodd" d="M133.97 1.54669C133.97 1.54669 142.257 4.4758 145.177 7.96687C147.887 11.2066 150.6 21.106 150.6 21.106C150.6 21.106 140.521 20.5061 137.585 17.672C133.513 13.741 133.97 1.54669 133.97 1.54669Z" stroke="black" stroke-width="0.290612"/>
<path id="path4278" fill-rule="evenodd" clip-rule="evenodd" d="M163.615 9.46029C163.615 9.46029 157.399 9.41316 155.059 11.5505C152.744 13.6648 150.962 20.957 150.962 20.957C150.962 20.957 157.426 24.291 160 22.3008C163.104 19.9011 163.615 9.46029 163.615 9.46029V9.46029Z" stroke="black" stroke-width="0.290612"/>
<path id="path4280" fill-rule="evenodd" clip-rule="evenodd" d="M142.044 76.201C145.215 74.1264 152.769 75.1558 152.769 75.1558C152.769 75.1558 149.103 81.9907 146.382 84.1143C142.778 86.9273 134.09 88.4442 134.09 88.4442C134.09 88.4442 138.305 78.647 142.044 76.201V76.201ZM136.139 116.962C136.139 116.962 143.954 111.426 146.382 106.958C148.719 102.661 149.877 92.0276 149.877 92.0276C149.877 92.0276 142.442 96.5392 140.116 100.538C137.418 105.175 136.139 116.962 136.139 116.962Z" stroke="black" stroke-width="0.290612"/>
<path id="path4282" fill-rule="evenodd" clip-rule="evenodd" d="M173.738 67.3917C173.738 67.3917 167.921 69.0887 165.905 71.5723C162.92 75.2495 160.844 85.9059 160.844 85.9059C160.844 85.9059 168.972 82.1993 171.448 78.1419C173.253 75.1861 173.738 67.3917 173.738 67.3917V67.3917Z" stroke="black" stroke-width="0.290612"/>
<path id="path4284" fill-rule="evenodd" clip-rule="evenodd" d="M153.613 49.4745C153.613 49.4745 157.162 50.2004 158.313 51.7142C160.133 54.1088 160.723 61.1206 160.723 61.1206C160.723 61.1206 156.253 60.0216 154.939 57.9851C153.482 55.7286 153.613 49.4745 153.613 49.4745Z" stroke="black" stroke-width="0.290612"/>
<path id="path4286" fill-rule="evenodd" clip-rule="evenodd" d="M162.41 28.4222C162.41 28.4222 157.704 36.8702 158.433 41.4121C159.177 46.0391 166.267 51.7144 166.267 51.7144C166.267 51.7144 167.708 42.5424 166.869 38.1273C166.18 34.504 162.41 28.4222 162.41 28.4222Z" stroke="black" stroke-width="0.290612"/>
<path id="path4288" fill-rule="evenodd" clip-rule="evenodd" d="M180.487 11.1024C180.487 11.1024 172.897 15.9606 171.569 20.5088C170.043 25.7329 173.859 36.9327 173.859 36.9327C173.859 36.9327 181.315 30.683 182.535 25.7346C183.703 21.0005 180.487 11.1024 180.487 11.1024V11.1024Z" stroke="black" stroke-width="0.290612"/>
<path id="path4290" fill-rule="evenodd" clip-rule="evenodd" d="M173.618 54.551C173.618 54.551 178.599 54.6503 180.366 56.492C182.102 58.3008 183.017 64.256 183.017 64.256C183.017 64.256 178.624 63.9028 176.992 62.315C175.126 60.4998 173.618 54.551 173.618 54.551V54.551Z" stroke="black" stroke-width="0.290612"/>
<path id="path4292" fill-rule="evenodd" clip-rule="evenodd" d="M181.692 41.5615C181.692 41.5615 185.292 45.2183 186.392 47.6831C187.415 49.9755 187.958 55.2978 187.958 55.2978C187.958 55.2978 183.564 53.5071 182.415 51.2665C181.009 48.5244 181.692 41.5615 181.692 41.5615Z" stroke="black" stroke-width="0.290612"/>
<path id="path4294" fill-rule="evenodd" clip-rule="evenodd" d="M189.766 25.5852C189.766 25.5852 195.434 29.1257 196.635 32.4534C197.933 36.0471 196.153 44.2487 196.153 44.2487C196.153 44.2487 190.044 41.0914 188.802 37.6792C187.458 33.9865 189.766 25.5852 189.766 25.5852V25.5852Z" stroke="black" stroke-width="0.290612"/>
<path id="path4296" fill-rule="evenodd" clip-rule="evenodd" d="M214.23 15.8799C214.23 15.8799 207.04 17.9287 205.191 21.4044C203.509 24.5674 204.709 32.7518 204.709 32.7518C204.709 32.7518 211.198 31.8862 213.024 29.0191C215.229 25.5591 214.23 15.8799 214.23 15.8799Z" stroke="black" stroke-width="0.290612"/>
<path id="path4298" fill-rule="evenodd" clip-rule="evenodd" d="M196.635 56.4924C196.635 56.4924 193.176 61.0576 193.176 63.9144C193.176 66.9388 196.838 71.7721 196.838 71.7721C196.838 71.7721 200.724 66.7738 200.623 63.6501C200.528 60.7534 196.635 56.4924 196.635 56.4924V56.4924Z" stroke="black" stroke-width="0.290612"/>
<path id="path4300" fill-rule="evenodd" clip-rule="evenodd" d="M211.217 45.8914C211.217 45.8914 208.158 50.6558 207.657 53.5294C206.832 58.2634 208.806 67.989 208.806 67.989C208.806 67.989 215.049 59.7034 215.083 54.5188C215.106 51.2295 211.217 45.8914 211.217 45.8914Z" stroke="black" stroke-width="0.290612"/>
<path id="path4302" fill-rule="evenodd" clip-rule="evenodd" d="M170.846 105.017C170.846 105.017 175.91 98.4665 179.281 97.4025C182.265 96.4608 188.44 98.8956 188.44 98.8956C188.44 98.8956 184.021 104.091 181.21 105.167C177.909 106.43 170.846 105.017 170.846 105.017V105.017Z" stroke="black" stroke-width="0.290612"/>
<path id="path4304" fill-rule="evenodd" clip-rule="evenodd" d="M195.55 84.2636C195.55 84.2636 198.91 88.0938 199.166 90.6839C199.589 94.9684 195.43 102.778 195.43 102.778C195.43 102.778 191.862 96.6141 191.935 93.0728C192.002 89.7797 195.55 84.2636 195.55 84.2636Z" stroke="black" stroke-width="0.290612"/>
<path id="path4306" fill-rule="evenodd" clip-rule="evenodd" d="M207.843 81.5762C207.843 81.5762 211.105 86.1865 211.325 89.0502C211.616 92.822 208.325 99.7918 208.325 99.7918C208.325 99.7918 204.872 94.6914 204.709 91.5798C204.523 88.0104 207.843 81.5762 207.843 81.5762Z" stroke="black" stroke-width="0.290612"/>
<path id="path4308" fill-rule="evenodd" clip-rule="evenodd" d="M225.507 47.4022C228.256 44.1648 236.414 43.3902 236.414 43.3902C236.414 43.3902 233.703 53.642 230.62 57.1152C228.169 59.8761 221.417 61.7606 221.417 61.7606C221.417 61.7606 222.538 50.8989 225.507 47.4022V47.4022Z" stroke="black" stroke-width="0.290612"/>
<path id="path4310" fill-rule="evenodd" clip-rule="evenodd" d="M218.008 66.6172C218.008 66.6172 221.711 62.5709 223.973 62.6053C226.594 62.645 230.79 67.4618 230.79 67.4618C230.79 67.4618 226.923 70.2739 224.314 69.9956C222.625 69.8157 218.008 66.6172 218.008 66.6172Z" stroke="black" stroke-width="0.290612"/>
<path id="path4312" fill-rule="evenodd" clip-rule="evenodd" d="M221.758 71.2626C221.758 71.2626 225.688 74.7241 226.359 77.386C227.661 82.5448 224.484 93.4337 224.484 93.4337C224.484 93.4337 218.027 84.8578 218.008 79.4975C217.997 76.3459 221.758 71.2626 221.758 71.2626Z" stroke="black" stroke-width="0.290612"/>
<path id="path4314" fill-rule="evenodd" clip-rule="evenodd" d="M250.901 51.4141C250.901 51.4141 241.363 55.1379 239.141 60.0714C237.508 63.6985 239.312 72.5295 239.312 72.5295C239.312 72.5295 245.568 70.9082 247.492 68.0953C250.486 63.72 250.901 51.4141 250.901 51.4141Z" stroke="black" stroke-width="0.290612"/>
<path id="path4316" fill-rule="evenodd" clip-rule="evenodd" d="M239.312 101.88C239.312 101.88 245.216 97.3305 246.64 93.645C247.893 90.4017 247.151 82.8762 247.151 82.8762C247.151 82.8762 241.413 86.6832 239.993 90.0554C238.518 93.559 239.312 101.88 239.312 101.88V101.88Z" stroke="black" stroke-width="0.290612"/>
<path id="path4318" fill-rule="evenodd" clip-rule="evenodd" d="M253.627 101.88C253.627 101.88 257.397 90.6023 261.467 88.1551C265.459 85.7549 274.76 88.9997 274.76 88.9997C274.76 88.9997 271.645 100.227 267.773 102.725C263.585 105.425 253.627 101.88 253.627 101.88V101.88Z" stroke="black" stroke-width="0.290612"/>
<path id="path4320" fill-rule="evenodd" clip-rule="evenodd" d="M200.113 116.66C200.113 116.66 202.839 127.528 201.647 132.708C200.174 139.114 191.592 148.333 191.592 148.333C192.373 148.818 193.361 137.075 192.444 129.541C191.802 124.265 200.113 116.66 200.113 116.66V116.66Z" stroke="black" stroke-width="0.290612"/>
<path id="path4322" fill-rule="evenodd" clip-rule="evenodd" d="M209.316 119.405C209.316 119.405 214.762 122.227 216.304 125.107C218.029 128.328 218.008 136.509 218.008 136.509C218.008 136.509 212.889 132.757 211.362 129.752C209.835 126.747 209.316 119.405 209.316 119.405V119.405Z" stroke="black" stroke-width="0.290612"/>
<path id="path4324" fill-rule="evenodd" clip-rule="evenodd" d="M217.156 109.481C217.156 109.481 221.859 112.074 223.292 114.549C225.211 117.865 225.848 126.374 225.848 126.374C225.848 126.374 220.615 121.856 219.031 118.561C217.74 115.877 217.156 109.481 217.156 109.481Z" stroke="black" stroke-width="0.290612"/>
<path id="path4326" fill-rule="evenodd" clip-rule="evenodd" d="M229.597 120.672C229.597 120.672 227.857 113.491 229.597 111.17C232.234 107.655 241.186 110.115 241.186 110.115C241.186 110.115 238.932 117.01 236.585 118.983C234.621 120.634 229.597 120.672 229.597 120.672V120.672Z" stroke="black" stroke-width="0.290612"/>
<path id="path4328" fill-rule="evenodd" clip-rule="evenodd" d="M225.677 128.696C225.677 128.696 231.754 125.428 234.88 125.951C237.325 126.361 242.379 130.386 241.357 130.386C240.334 130.386 236.927 133.234 234.54 133.131C231.356 132.993 225.677 128.696 225.677 128.696V128.696Z" stroke="black" stroke-width="0.290612"/>
<path id="path4330" fill-rule="evenodd" clip-rule="evenodd" d="M250.048 109.27C250.048 109.27 254.192 112.979 254.65 115.816C255.319 119.963 251.412 127.852 251.412 127.852C251.412 127.852 246.302 122.19 246.129 118.35C245.973 114.923 250.048 109.27 250.048 109.27Z" stroke="black" stroke-width="0.290612"/>
<path id="path4332" fill-rule="evenodd" clip-rule="evenodd" d="M262.49 122.15C262.49 122.15 261.183 114.121 263.171 111.593C265.803 108.247 274.42 110.115 274.42 110.115C274.42 110.115 273.111 116.674 271.181 118.772C268.899 121.254 262.49 122.15 262.49 122.15Z" stroke="black" stroke-width="0.290612"/>
<path id="path4334" fill-rule="evenodd" clip-rule="evenodd" d="M194.83 152.135C194.83 152.135 200.932 156.734 203.522 159.736C205.498 162.027 208.635 167.549 208.635 167.549C208.635 167.549 201.861 167.299 199.432 164.804C196.554 161.849 194.83 152.135 194.83 152.135V152.135Z" stroke="black" stroke-width="0.290612"/>
<path id="path4336" fill-rule="evenodd" clip-rule="evenodd" d="M221.417 155.935C221.417 155.935 224.388 162.522 224.144 166.071C223.837 170.526 219.031 177.895 219.031 177.895C219.031 177.895 215.64 170.001 216.134 165.86C216.601 161.939 221.417 155.935 221.417 155.935V155.935Z" stroke="black" stroke-width="0.290612"/>
<path id="path4338" fill-rule="evenodd" clip-rule="evenodd" d="M240.846 143.688C240.846 143.688 244.478 151.717 244.595 156.147C244.731 161.288 241.016 170.927 241.016 170.927C241.016 170.927 236.244 157.625 236.074 156.147C235.903 154.668 240.846 143.688 240.846 143.688Z" stroke="black" stroke-width="0.290612"/>
<path id="path4340" fill-rule="evenodd" clip-rule="evenodd" d="M265.898 127.852C265.898 127.852 260.089 130.082 258.911 133.131C257.203 137.548 260.445 147.7 260.445 147.7C260.445 147.7 264.607 141.818 265.557 138.198C266.419 134.916 265.898 127.852 265.898 127.852V127.852Z" stroke="black" stroke-width="0.290612"/>
<path id="path4344" fill-rule="evenodd" clip-rule="evenodd" d="M253.457 161.003C253.457 161.003 260.435 156.966 264.194 156.569C268.317 156.133 276.465 158.891 276.465 158.891C276.465 158.891 268.552 166.567 263.853 166.704C260.065 166.814 253.457 161.003 253.457 161.003V161.003Z" stroke="black" stroke-width="0.290612"/>
</g>
</g>
</g>
</g>
</svg>
